HIERARCHY
ROOT Hips
{
  OFFSET -33.9132 29.2015 117.021
  CHANNELS 6 Xposition Yposition Zposition Zrotation Xrotation Yrotation
  JOINT LeftUpLeg
  {
    OFFSET 8.64259 1.95398 -2.38835
    CHANNELS 3 Zrotation Xrotation Yrotation
    JOINT LeftLeg
    {
      OFFSET 43.7702 0 0
      CHANNELS 3 Zrotation Xrotation Yrotation
      JOINT LeftFoot
      {
        OFFSET 40.6238 0 0
        CHANNELS 3 Zrotation Xrotation Yrotation
        JOINT LeftToeBase
        {
          OFFSET 12.7242 0 0
          CHANNELS 3 Zrotation Xrotation Yrotation
          End Site
          {
            OFFSET 0 0 0
          }
        }
      }
    }
  }
  JOINT RightUpLeg
  {
    OFFSET -8.2249 1.95398 -2.59336
    CHANNELS 3 Zrotation Xrotation Yrotation
    JOINT RightLeg
    {
      OFFSET 43.5653 0 0
      CHANNELS 3 Zrotation Xrotation Yrotation
      JOINT RightFoot
      {
        OFFSET 40.6238 0 0
        CHANNELS 3 Zrotation Xrotation Yrotation
        JOINT RightToeBase
        {
          OFFSET 12.7242 0 0
          CHANNELS 3 Zrotation Xrotation Yrotation
          End Site
          {
            OFFSET 0 0 0
          }
        }
      }
    }
  }
  JOINT Spine
  {
    OFFSET 0.165834 0.87714 6.61349
    CHANNELS 3 Zrotation Xrotation Yrotation
    JOINT Spine1
    {
      OFFSET 7.38963 1.71661e-005 0
      CHANNELS 3 Zrotation Xrotation Yrotation
      JOINT Spine2
      {
        OFFSET 11.9445 1.14441e-005 0
        CHANNELS 3 Zrotation Xrotation Yrotation
        JOINT Spine3
        {
          OFFSET 14.7254 4.19617e-005 0
          CHANNELS 3 Zrotation Xrotation Yrotation
          JOINT Spine4
          {
            OFFSET 10.9679 0 0
            CHANNELS 3 Zrotation Xrotation Yrotation
            JOINT RightShoulder
            {
              OFFSET 2.46616 -1.6653 3.69651
              CHANNELS 3 Zrotation Xrotation Yrotation
              JOINT RightArm
              {
                OFFSET 13.0012 0 0
                CHANNELS 3 Zrotation Xrotation Yrotation
                JOINT RightForeArm
                {
                  OFFSET 28.7848 1.62311e-005 0
                  CHANNELS 3 Zrotation Xrotation Yrotation
                  JOINT RightHand
                  {
                    OFFSET 26.5688 1.62095e-005 0
                    CHANNELS 3 Zrotation Xrotation Yrotation
                    End Site
                    {
                      OFFSET 0 0 0
                    }
                  }
                }
              }
            }
            JOINT LeftShoulder
            {
              OFFSET 2.38034 -1.29275 -3.7523
              CHANNELS 3 Zrotation Xrotation Yrotation
              JOINT LeftArm
              {
                OFFSET 16.3182 6.07031e-005 0
                CHANNELS 3 Zrotation Xrotation Yrotation
                JOINT LeftForeArm
                {
                  OFFSET 27.0901 0 0
                  CHANNELS 3 Zrotation Xrotation Yrotation
                  JOINT LeftHand
                  {
                    OFFSET 24.5451 1.51738e-005 0
                    CHANNELS 3 Zrotation Xrotation Yrotation
                    End Site
                    {
                      OFFSET 0 0 0
                    }
                  }
                }
              }
            }
            JOINT Neck
            {
              OFFSET 5.0226 -0.0266342 0
              CHANNELS 3 Zrotation Xrotation Yrotation
              JOINT Head
              {
                OFFSET 6.69364 2.86102e-005 0
                CHANNELS 3 Zrotation Xrotation Yrotation
                End Site
                {
                  OFFSET 0 0 0
                }
              }
            }
          }
        }
      }
    }
  }
}
MOTION
Frames:	17
Frame Time:	0.0416667
-28.5559 99.622 63.2288 100.492 32.1062 84.4911 -173.401 3.99479 88.9889 -24.0853 6.88079 -1.73847 71.2831 6.93397 1.34332 16.5407 -9.66979 6.55569 176.903 7.35573 90.5813 -23.7603 -17.2241 -2.4038 64.4272 -3.61254 -0.475615 25.8958 0.806911 1.89024 -0.745182 7.65537 -90.271 11.5613 -1.60915 -0.374149 -0.108651 -1.62407 -0.30295 -22.65 -1.42231 -0.840553 -2.63734 -1.42232 -0.840558 95.251 -25.8409 -97.2179 51.8223 9.27135 11.4319 -4.46174 -27.3804 -5.04895 -13.9032 1.53425 -18.4156 -83.8565 -42.0049 87.004 -33.3252 -22.3219 -24.4627 -1.03294 28.8424 -6.76401 23.5586 -7.48901 -33.1973 -23.0541 1.47818 -2.116 -14.0602 0.792309 6.04997 
-26.4124 100.038 62.4023 98.9096 33.8179 85.561 -173.714 3.18752 89.4412 -22.0332 7.47622 -1.07238 71.3677 7.51295 0.486625 16.2243 -9.9167 6.65432 176.072 6.07621 90.8272 -21.5115 -16.1904 -1.77716 65.3 -3.58477 -0.211961 24.7847 1.05907 2.74044 -0.654452 7.62165 -90.343 11.6274 -1.46252 -0.531734 -0.0428045 -1.48451 -0.466848 -22.5821 -1.2351 -0.94674 -2.56942 -1.23511 -0.946749 95.8275 -24.9811 -96.1803 53.0252 8.99014 11.5165 -4.53387 -28.8263 -5.07501 -12.6088 1.36895 -18.3702 -83.7532 -43.2295 87.3329 -33.2396 -19.1898 -19.7569 -1.33563 30.6587 -7.74303 21.8336 -6.57072 -31.4761 -23.7226 1.20278 -1.74741 -13.9161 0.619629 5.11816 
-24.3748 100.29 61.7803 97.5866 33.1197 86.2655 -173.622 1.10764 89.5829 -19.0163 6.68782 -1.03697 71.2342 7.89262 0.533268 18.3637 -8.96902 7.19056 175.793 5.0756 90.9148 -20.0062 -16.9997 -1.56466 65.9587 -3.66024 -0.0218512 24.4165 1.00488 3.48131 -0.338089 7.63171 -90.3275 11.6084 -0.825984 -0.567044 -0.0624224 -0.850128 -0.530142 -22.5978 -0.617364 -0.789061 -2.58519 -0.617382 -0.789062 95.8222 -24.7728 -96.2395 53.1732 8.38948 9.74146 -4.65847 -31.2425 -5.12332 -14.9925 2.02385 -21.1951 -83.5111 -43.0794 87.711 -33.3858 -16.3613 -13.0495 -4.83805 26.6608 -4.47024 15.622 -3.79714 -25.8373 -24.3717 1.56899 -1.87215 -13.8338 0.991849 5.01648 
-22.3459 100.303 61.3657 95.9989 33.2143 87.0573 -173.385 1.0887 90.0094 -18.2582 7.14453 -1.04257 72.1634 8.99755 0.356909 18.0441 -10.2525 9.0424 175.763 5.06719 91.3232 -19.7204 -17.9444 -1.3428 66.6833 -4.07634 -1.3979 23.0044 1.62091 3.4596 -0.235104 7.56068 -90.3274 11.7506 -0.621311 -0.587121 0.079714 -0.646539 -0.559214 -22.455 -0.416138 -0.746706 -2.44235 -0.416139 -0.746707 96.1611 -23.6698 -95.7531 53.0483 7.35336 6.42119 -4.68965 -31.8336 -5.13715 -16.7302 2.49851 -22.7987 -83.6976 -45.4241 87.6901 -29.7374 -15.2247 -5.51821 -8.53679 23.5696 -0.0136949 6.63475 -1.1449 -19.2512 -25.8422 1.6228 -0.144238 -13.1549 1.33749 3.55747 
-20.7804 100.221 61.2571 94.5192 32.3212 87.5105 -173.476 1.08387 89.7975 -17.7252 5.82308 -0.925667 72.4149 9.62315 0.498345 19.5269 -9.49034 9.30113 175.748 5.76363 91.3569 -20.3758 -19.0895 -1.2966 67.6678 -4.66605 -1.96257 22.0927 2.00914 3.48329 -0.0179846 7.59494 -90.2922 11.6831 -0.172755 -0.564261 0.0120493 -0.197407 -0.556114 -22.5221 0.00480067 -0.590091 -2.50947 0.0048155 -0.590095 96.557 -22.4537 -95.1432 52.3555 6.46269 2.98186 -4.65419 -31.1635 -5.12236 -19.8121 3.30492 -24.6421 -83.705 -47.4334 87.9117 -27.0622 -16.843 4.24688 -8.54104 25.7417 -0.0147454 2.79825 -0.0850834 -12.7432 -25.9413 1.6726 1.05754 -12.7943 1.55772 2.93299 
-20.0809 99.8767 61.9591 92.0458 32.7852 88.7662 -173.403 4.93931 90.2422 -21.0866 3.49951 -0.853168 74.364 10.5769 -1.35348 17.5802 -10.9424 9.71193 176.057 8.82459 92.0744 -22.4815 -18.3781 -1.0012 68.5477 -5.22267 -2.54717 21.6387 2.16729 3.60733 0.250713 7.72221 -90.2611 11.4304 0.377089 -0.557883 -0.240606 0.35215 -0.573944 -22.7755 0.527309 -0.418766 -2.76291 0.527312 -0.418772 96.0232 -23.0446 -96.2179 48.5804 7.11657 0.790697 -4.73777 -32.7242 -5.15708 -21.1452 3.55572 -24.6939 -83.6903 -48.0045 87.9992 -24.3396 -19.3896 12.8792 -7.64526 25.04 -0.0133571 -0.902642 0.265785 -12.894 -23.6357 1.38104 -0.219214 -12.0178 1.18534 2.81383 
-20.817 99.0786 63.3931 88.0903 35.2481 90.5205 -174.453 14.3991 89.6052 -30.0318 6.89449 -0.474425 73.1315 9.77412 -0.507056 19.6715 -9.72959 9.83984 176.084 15.3386 92.1696 -27.016 -16.0399 -0.428787 69.7116 -5.78236 -2.90032 21.6894 2.18684 3.47684 0.425772 8.00726 -90.2443 10.861 0.73488 -0.555301 -0.809887 0.709694 -0.587104 -23.3464 0.8678 -0.308753 -3.33372 0.867781 -0.308758 95.3253 -22.632 -97.9315 44.5194 8.05227 -1.25522 -4.76568 -33.241 -5.17043 -20.9112 3.19974 -22.9725 -84.1861 -47.1546 87.1295 -22.1418 -20.3423 12.0853 -7.29757 23.5077 -0.0113494 -2.10404 0.359384 -14.0526 -18.1265 0.556652 -1.28268 -10.9967 0.422711 1.5761 
-22.4202 98.118 65.382 81.7323 36.2142 93.9613 -175.593 24.8519 89.4138 -34.3656 10.6279 -0.423255 74.0519 9.44911 -2.1651 23.9919 -8.94513 13.3741 176.315 24.2787 92.4152 -30.985 -14.5395 0.179847 69.9016 -6.22128 -2.94024 21.938 2.05433 3.55345 0.615564 8.36236 -90.2094 10.1519 1.13115 -0.511124 -1.51869 1.10755 -0.56043 -24.0577 1.23247 -0.147493 -4.04503 1.23244 -0.147509 94.1464 -22.2228 -100.754 39.5135 9.06495 -5.46544 -4.85116 -34.7734 -5.20994 -20.019 2.4044 -19.247 -85.574 -45.7463 84.7512 -21.5549 -20.5718 4.03261 -7.06021 23.3833 -0.00973803 1.83846 0.0407897 -11.6876 -10.4862 -0.587605 -2.42104 -9.07923 -0.504367 0.575294 
-24.234 97.0096 67.2723 75.3572 35.8397 96.7423 -176.364 33.86 88.4917 -33.7769 10.2927 -0.948301 71.3935 7.70598 -1.41884 23.0583 -8.92729 12.1916 176.067 33.461 91.9323 -34.9463 -14.7669 0.8473 70.1221 -6.63985 -3.10285 21.5045 2.16924 3.78281 0.683177 8.75944 -90.1009 9.35686 1.31706 -0.298348 -2.31346 1.30265 -0.356037 -24.854 1.34582 0.111356 -4.84132 1.34582 0.111348 92.6976 -21.7802 -104.245 33.5505 10.5017 -12.1789 -5.20142 -40.5307 -5.39415 -16.9583 1.30485 -14.3731 -87.6411 -44.8667 81.315 -20.0626 -18.7522 -9.45627 -7.94764 23.9776 -0.0306054 4.71961 -0.160209 -11.8419 -3.91297 -0.709649 -1.30653 -7.4394 -0.555269 -0.484156 
-26.1465 95.0427 68.9767 69.9238 34.8868 99.9275 -175.676 42.8466 88.4238 -37.1855 6.53671 -1.74958 72.8219 8.30021 -1.91754 16.801 -11.9209 10.4912 174.441 42.8368 92.577 -40.5596 -16.0743 2.36667 71.1397 -7.74724 -3.39514 21.0743 2.18382 4.31246 0.723473 9.14142 -90.1273 8.59334 1.38735 -0.340189 -3.07692 1.37103 -0.400932 -25.618 1.42543 0.0925837 -5.60536 1.42543 0.0925697 91.5736 -19.2327 -107.982 29.6734 11.4073 -20.2217 -5.0252 -37.729 -5.2959 -16.7621 0.89836 -11.6183 -89.145 -42.7279 78.4341 -19.641 -17.6706 -26.9368 -8.32029 28.5665 -0.099421 8.33268 -0.214751 -9.9638 1.25093 -0.772642 0.0638231 -6.14583 -0.737778 -0.961545 
-27.9491 91.5726 70.6142 65.3218 34.0187 102.524 -172.052 53.265 87.3394 -46.9128 9.74327 -3.40267 77.0947 10.8827 -1.90057 16.2829 -13.6525 12.6703 171.049 53.4698 94.7453 -50.08 -17.4909 3.51793 73.6357 -9.98134 -3.74679 20.8181 2.10959 4.87593 0.709339 9.50691 -90.1073 7.86189 1.36926 -0.285794 -3.8084 1.35535 -0.345802 -26.3493 1.39182 0.139022 -6.33667 1.39183 0.139011 90.7562 -18.0011 -110.56 25.2971 13.1623 -30.2185 -4.78452 -33.5834 -5.18016 -18.5547 0.965262 -11.3845 -89.6759 -38.1157 76.3773 -19.7547 -16.2517 -43.7764 -8.94505 29.1018 -0.0116478 6.87279 -0.225084 -11.6348 5.87969 -0.626061 0.24217 -5.39172 -0.651891 -0.584757 
-29.6128 86.8655 72.0103 62.1209 33.3817 105.009 -163.661 63.8216 82.864 -58.6197 14.4016 -4.72431 81.3223 13.8111 -1.89764 13.9851 -15.393 12.9482 161.685 63.2401 101.64 -61.1425 -20.2503 4.85397 76.492 -12.3063 -3.33285 20.5516 2.18831 4.97896 0.822715 9.81433 -90.2205 7.24861 1.54794 -0.506219 -4.42155 1.52414 -0.573884 -26.9641 1.6285 -0.01748 -6.95145 1.62849 -0.0174876 90.562 -17.553 -111.278 22.6205 14.5076 -39.9443 -4.4099 -26.3175 -5.031 -21.8612 1.17344 -11.4878 -90.6317 -34.5405 73.6522 -19.7354 -17.1468 -60.0505 -8.66756 28.7793 -0.0173185 10.0773 -1.10769 -16.1432 7.86511 -1.60914 -0.826392 -3.41831 -1.40866 0.66525 
-30.8053 80.9405 72.7693 61.979 33.0234 105.662 -143.295 71.1779 68.6822 -71.3726 21.8302 -5.74103 82.6684 15.9537 0.605294 13.9113 -11.8695 7.47398 142.922 69.4057 116.658 -73.8294 -24.6171 5.06058 79.5772 -15.4044 -3.95391 19.69 1.8702 7.00646 0.893087 10.1762 -90.3488 6.52616 1.63579 -0.745773 -5.14401 1.60139 -0.817064 -27.6871 1.78427 -0.219535 -7.67442 1.78428 -0.219537 89.7498 -15.3699 -114.584 20.6017 15.9948 -45.4182 -4.17833 -21.2303 -4.97524 -21.1786 0.988466 -10.7099 -90.1264 -29.0261 72.7237 -23.2212 -16.8169 -72.4558 -7.63 27.1916 -0.0149762 13.5884 -1.75527 -16.9862 8.57048 -2.09358 -0.940147 -1.62571 -1.83342 0.97511 
-31.4841 74.0991 72.8103 62.7038 32.1123 105.329 -105.741 72.3863 41.0936 -84.2071 32.0736 -6.21612 87.9189 20.2279 -0.245582 3.03096 -16.5782 4.6142 110.885 70.2486 141.588 -86.7631 -36.0588 4.59282 81.266 -18.7983 -7.50403 15.9559 2.98325 8.11045 1.10187 10.4578 -90.3575 5.96446 2.05122 -0.76348 -5.70513 2.01561 -0.853061 -28.2532 2.18578 -0.111435 -8.24058 2.18579 -0.111438 89.7622 -14.3142 -115.256 20.0758 16.4055 -50.2897 -4.05638 -18.677 -4.93382 -20.8119 0.486491 -7.96835 -88.953 -24.6137 73.4619 -28.6551 -14.2319 -84.0474 -5.98052 27.1445 -0.00525163 12.1945 -0.962089 -12.811 11.475 -2.20549 -1.80981 -2.9007 -1.7247 2.15006 
-31.9771 67.2717 72.4428 63.9045 32.0115 104.085 -78.1479 68.7309 19.6201 -97.5683 37.3307 -3.27272 91.1655 22.9823 -0.948068 -6.02849 -18.6933 0.121688 85.0249 67.8557 161.856 -101.11 -38.9361 0.931624 84.3825 -21.4549 -6.65244 11.3161 3.63368 10.9625 1.02214 10.6444 -90.3814 5.59074 1.88319 -0.795163 -6.07912 1.8464 -0.877297 -28.625 2.03508 -0.1922 -8.61236 2.0351 -0.192213 89.9174 -13.534 -115.39 19.9527 16.4917 -54.1979 -3.90531 -15.1535 -4.91295 -17.769 0.119441 -6.03864 -89.3495 -25.0032 72.7854 -28.2178 -14.0219 -87.6224 -6.2473 24.0032 -0.00824116 11.4467 -0.397597 -9.30554 11.355 -1.31983 -0.604095 -2.39595 -1.1347 1.89844 
-32.3839 61.112 72.1152 67.5637 31.7995 102.424 -64.0327 65.6059 8.58761 -111.125 38.399 1.54025 93.9625 26.2959 0.292912 -10.129 -21.6876 0.42517 71.0104 63.4598 173.216 -114.311 -38.4313 -3.5952 83.9006 -21.9292 -8.14965 10.1797 2.92844 13.6578 0.997809 11.0842 -90.456 4.71146 1.80709 -0.917756 -6.9586 1.76496 -0.996417 -29.5033 1.99935 -0.332023 -9.49066 1.99934 -0.332042 90.3086 -12.7354 -114.925 19.7957 16.6339 -56.8273 -3.84183 -13.7468 -4.89651 -17.4415 0.227537 -6.81461 -89.8698 -26.1361 72.1627 -28.355 -15.1898 -88.5422 -5.92641 19.399 0.0649876 12.6909 -0.0651879 -6.39536 11.557 0.185837 -1.43507 -2.37526 0.535713 3.18124 
-32.6552 55.6625 71.6922 71.4466 31.8541 100.147 -56.4308 62.1197 3.12536 -121.628 35.2967 5.0442 96.2769 28.0199 -0.223003 -10.2954 -20.8128 -0.679275 62.4766 59.7905 179.172 -124.864 -37.3676 -6.96733 84.1629 -22.7297 -9.11666 8.21721 2.53564 16.1365 0.974778 11.4509 -90.4016 3.97684 1.78579 -0.792643 -7.69317 1.74917 -0.870489 -30.2379 1.94142 -0.219115 -10.2252 1.94142 -0.219122 90.74 -12.5591 -113.907 19.4515 16.9942 -57.6615 -3.86214 -14.1888 -4.90279 -14.4212 0.215772 -7.54008 -89.7042 -25.4794 72.2451 -28.3998 -16.2212 -87.2719 -5.87799 13.0954 -0.0169387 6.21516 -0.128452 -9.87703 10.5045 1.82037 -2.61499 -2.92644 2.37406 3.3158 
